<svg width="202" height="69" viewBox="0 0 202 69" fill="none" xmlns="http://www.w3.org/2000/svg">
<path d="M37.4708 0.0292969C36.9845 0.114323 36.6756 0.249828 36.2932 0.544758C35.3841 1.25152 34.1888 2.54282 33.9153 3.11408C33.7684 3.41963 33.7405 3.58968 33.7633 3.96698C33.776 4.145 33.7836 4.34162 33.781 4.40804C33.7659 4.7136 33.5886 5.37519 33.4366 5.70466C33.3455 5.90128 33.2037 6.08195 33.1429 6.08195C33.1201 6.08195 33.0542 6.03147 33.0011 5.97302C32.8441 5.80297 32.6896 5.73654 32.4338 5.73654C32.1856 5.73654 31.9856 5.78703 31.7146 5.91456L31.5171 6.01021L31.2841 5.9491C31.0182 5.88002 30.6763 5.86674 30.5117 5.91722C30.38 5.95973 30.218 6.10587 30.147 6.24935C30.1192 6.3078 30.0837 6.43268 30.066 6.53099L30.0356 6.70635L29.5545 6.95877C29.2911 7.09959 28.9695 7.28292 28.8403 7.36529C28.7112 7.44765 28.5922 7.51674 28.577 7.51674C28.5643 7.51674 28.5288 7.54597 28.501 7.58316C28.4301 7.67616 28.3946 7.66553 28.3187 7.53268C28.2022 7.32277 27.9312 7.11287 27.6856 7.04379C27.5665 7.00925 27.5691 7.00925 27.7919 7.16601C27.9996 7.30949 28.3541 7.63896 28.3541 7.68413C28.3541 7.70273 28.3262 7.75055 28.2883 7.79041L28.225 7.86215L28.1009 7.7293C27.9565 7.57253 27.7159 7.445 27.5311 7.42374C27.3893 7.4078 27.3741 7.39451 27.7134 7.55925C27.9565 7.67616 28.2022 7.85152 28.2022 7.90997C28.2022 7.93654 28.187 7.98171 28.1667 8.01094C28.1313 8.05877 28.1262 8.05876 28.0578 8.01625C27.8046 7.85683 27.5969 7.78244 27.4045 7.78509C27.3133 7.78509 27.3285 7.79572 27.5691 7.88606C27.7159 7.94186 27.8957 8.01891 27.9717 8.05877C28.0933 8.12519 28.1059 8.13848 28.0907 8.20224C28.0831 8.2421 28.0679 8.34838 28.0603 8.43872C28.0502 8.52905 28.03 8.60876 28.0148 8.61408C27.9641 8.63268 25.6571 8.4706 25.6343 8.44669C25.6216 8.4334 25.6292 8.38558 25.6546 8.33244C25.7407 8.14113 25.6951 7.98968 25.4874 7.77978C25.3253 7.61505 25.1987 7.58051 25.062 7.66819C24.9936 7.7107 24.9885 7.70804 24.867 7.62567C24.7632 7.55128 24.7277 7.54065 24.6264 7.55128C24.5454 7.55925 24.477 7.58582 24.4111 7.63896C24.3225 7.7107 24.2997 7.71601 24.0971 7.71601C23.8414 7.71601 23.7705 7.75587 23.7705 7.902C23.7705 7.995 23.7375 8.02157 23.6286 8.02157C23.5552 8.02157 23.502 8.10393 23.4792 8.25273C23.4691 8.31649 23.4514 8.37229 23.4412 8.38026C23.4286 8.38823 23.2614 8.36963 23.069 8.34041C22.1143 8.19427 21.5546 7.94452 21.3317 7.56988L21.276 7.47688L21.2583 7.62302C21.1747 8.32446 21.1367 9.38727 21.195 9.44838C21.2178 9.46964 21.2127 9.47495 21.4862 9.24379C21.7268 9.0392 22.0282 8.84789 22.2333 8.76818C22.3979 8.70442 22.7018 8.69113 22.7524 8.74427C22.7702 8.76287 22.7828 8.82398 22.7828 8.88244C22.7828 9.13751 22.9044 9.3235 23.1146 9.38727C23.1728 9.40587 23.226 9.43244 23.231 9.44572C23.2361 9.45901 23.1222 9.62108 22.9778 9.80176C21.9167 11.1542 21.2634 12.2063 21.0709 12.8759L21 13.123L21.076 13.2213C21.1443 13.3117 21.1899 13.3356 21.4812 13.4365C21.661 13.5003 21.9117 13.5641 22.0358 13.5827L22.2637 13.6146L22.2535 14.1167C22.2459 14.5817 22.2485 14.6189 22.2865 14.603C22.3903 14.5605 22.9753 14.5047 23.302 14.5047C24.0338 14.5073 24.6543 14.6535 25.2772 14.9749C25.4039 15.0414 25.5406 15.1158 25.5837 15.145L25.6622 15.1955L25.6799 14.9749C25.7052 14.6348 25.7938 14.3399 25.9458 14.1008C26.0192 13.9865 26.0775 13.9361 26.2522 13.8351C26.3712 13.7634 26.4827 13.7076 26.5004 13.7076C26.5485 13.7076 26.5308 13.782 26.2775 14.5844C25.9053 15.7641 25.6672 16.3539 25.3051 16.9969C25.0417 17.4619 23.9401 19.545 23.616 20.1906C23.1095 21.1977 22.6866 22.2047 22.5878 22.6324L22.5448 22.8184L22.6182 23.0071C22.6638 23.1293 22.717 23.2143 22.7626 23.2489C22.8993 23.3525 23.188 23.4694 24.0617 23.7776C25.1278 24.1549 25.9762 24.5056 26.8397 24.9307L27.0322 25.0264L27.0195 25.2868C26.9917 25.8022 27.0854 26.0865 27.407 26.4612C27.5133 26.5861 27.6197 26.7348 27.645 26.7906C27.6881 26.8863 27.6881 26.9049 27.6526 26.974C27.6324 27.0191 27.6222 27.0803 27.6324 27.1175C27.6501 27.1998 28.0781 27.6542 28.387 27.9199C28.5238 28.0394 28.6073 28.1298 28.6073 28.1617C28.6073 28.3237 28.8074 28.7196 29.0328 29.0039C29.1316 29.1262 29.4684 29.437 29.7039 29.6177C29.8735 29.7505 29.866 29.7001 29.8229 30.4068C29.7545 31.5148 29.6026 32.0754 29.2734 32.4208C29.0429 32.6653 28.9543 32.7078 28.6504 32.7317C28.344 32.7556 28.2883 32.7795 28.0553 33.008C27.9616 33.0984 27.802 33.2419 27.7033 33.3269C27.5893 33.4172 27.5184 33.4969 27.5184 33.5288C27.5184 33.5899 27.6172 33.6749 27.7387 33.7148C27.8071 33.7414 27.8248 33.7573 27.8147 33.7972C27.8071 33.8237 27.8147 33.8503 27.8299 33.853C27.8603 33.8583 28.7795 33.8769 29.1164 33.8795C29.3468 33.8795 29.519 33.8264 29.6988 33.6989C29.8356 33.6032 29.8837 33.5899 29.9141 33.6377C29.9597 33.7201 30.5066 33.5607 30.8105 33.3774C31.1575 33.1701 31.236 32.9443 31.317 31.924C31.3955 30.9462 31.4766 30.4865 31.5652 30.5051C31.631 30.5184 31.6614 30.6646 31.7602 31.4165C31.8666 32.2481 31.8919 32.3571 32.0058 32.4129C32.0818 32.4474 32.1021 32.4873 32.2059 32.7742C32.3452 33.1648 32.3984 33.2551 32.5655 33.4066C32.8466 33.6537 33.0821 33.7467 33.2923 33.6882C33.3936 33.659 33.4113 33.6643 33.5405 33.7307C33.662 33.7945 33.7051 33.8025 33.8899 33.7998C34.0773 33.7945 34.1103 33.8025 34.1938 33.8609C34.2445 33.8981 34.3458 33.946 34.4192 33.9699C34.5458 34.0124 34.556 34.0124 34.7256 33.9539C34.8219 33.9194 34.9308 33.8769 34.9687 33.8583C35.027 33.8264 35.065 33.8264 35.2169 33.8609C35.4398 33.9114 35.498 33.9114 35.5588 33.8636C35.6044 33.8291 35.6044 33.8237 35.5385 33.7068C35.455 33.558 35.2701 33.3561 35.1106 33.2419C35.0447 33.194 34.8168 33.0745 34.599 32.9735C34.3838 32.8725 34.1584 32.7556 34.0976 32.7105C33.9558 32.6095 33.776 32.4049 33.6874 32.2481C33.2923 31.5387 33.2037 30.3191 33.505 29.7054C33.5835 29.5513 33.7304 29.4051 34.1204 29.1022C34.3356 28.9322 34.5332 28.7568 34.5712 28.701C34.6066 28.6452 34.6649 28.5044 34.6978 28.3848C34.7915 28.0634 34.8472 28.0022 35.3182 27.6595C35.6322 27.4283 35.7361 27.3327 35.7994 27.2025C35.8627 27.0723 35.9007 26.8225 35.9007 26.5143C35.9007 26.2513 35.9766 25.8341 36.0703 25.5711C36.1159 25.4409 36.121 25.4382 36.2425 25.4196C36.3135 25.4063 36.6148 25.3638 36.9136 25.3187C37.7012 25.2044 38.6382 25.0237 38.6534 24.9839C38.6585 24.9653 38.6306 24.7873 38.5876 24.5853C38.5192 24.2559 38.5141 24.2107 38.547 24.1576C38.6281 24.0274 39.1092 23.7431 39.6385 23.5119C39.7753 23.4534 39.8892 23.4003 39.8943 23.395C39.8993 23.3923 39.8664 23.2993 39.8234 23.1904C39.6942 22.8689 39.5549 22.4225 39.522 22.2233L39.4916 22.0373L39.6031 21.9336C39.793 21.7556 40.616 21.0701 40.7933 20.9426C40.887 20.8762 40.9781 20.8283 40.9984 20.8363C41.0288 20.8496 41.0364 21.0276 41.0465 21.9496C41.0541 22.5527 41.0491 23.0602 41.0389 23.0735C41.0288 23.0894 40.9528 23.132 40.8718 23.1665C40.1627 23.472 39.7499 24.0539 39.7499 24.7474C39.7525 25.1141 39.8993 25.4568 40.1703 25.7146C40.4134 25.9484 40.7705 26.0786 41.244 26.1078C41.7201 26.1344 41.905 26.052 42.1177 25.7146C42.2697 25.4781 42.3963 25.1672 42.4748 24.8457C42.5736 24.4498 42.528 24.2346 42.2697 23.86C42.024 23.5013 41.8392 23.3312 41.4492 23.108L41.3707 23.0629V21.8167V20.5706L41.4289 20.5175C41.5733 20.3766 42.0873 20.1455 42.5001 20.0339C42.6115 20.0047 42.9661 19.9303 43.2852 19.8718C43.6042 19.8107 44.0018 19.7283 44.169 19.6832C44.4273 19.6167 45.1971 19.359 45.4326 19.2634L45.5036 19.2341L45.3921 19.1066C45.2098 18.902 45.0781 18.7027 44.9793 18.4875C44.8401 18.1766 44.8426 18.1634 45.0756 17.996C45.5871 17.6293 45.8454 17.2759 45.967 16.7711C46.0126 16.5824 46.0126 16.5798 45.9569 16.3752C45.7998 15.8066 45.2984 15.0919 44.9186 14.8952C44.7666 14.8182 44.7312 14.8102 44.5235 14.8129C44.2146 14.8129 43.9259 14.9085 43.5967 15.1184C43.1839 15.3815 42.3102 16.1281 41.7657 16.6861C41.5657 16.888 41.3909 17.0554 41.3757 17.0554C41.3605 17.0554 41.315 16.9969 41.2744 16.9252C41.163 16.7365 40.963 16.5399 40.7958 16.4522C40.6641 16.3858 40.6211 16.3778 40.4008 16.3778H40.1551L39.8765 16.067C39.7221 15.8969 39.5397 15.7136 39.4714 15.6605C39.4005 15.6073 39.3447 15.5515 39.3447 15.5409C39.3447 15.5196 39.7677 14.8899 40.3501 14.0423C40.6185 13.6518 40.6337 13.5986 40.5046 13.4551C40.4134 13.3568 39.6562 12.8786 39.2004 12.6341C39.0434 12.5491 38.9142 12.4694 38.9142 12.4588C38.9142 12.4216 39.0206 12.3259 39.1244 12.2701C39.2283 12.2143 39.4384 12.1532 39.6334 12.1266L39.7601 12.108L39.6334 12.0283C39.5068 11.9433 39.2409 11.8211 39.1042 11.7812C39.0636 11.7706 38.9168 11.752 38.78 11.744L38.5318 11.7281L38.6711 11.5793C38.8687 11.3614 38.9497 11.2047 38.9497 11.0373C38.9497 10.8433 38.8864 10.7663 38.5015 10.4979C38.1013 10.2216 38.0254 10.1472 37.7493 9.74065C37.5239 9.40852 37.4682 9.35007 37.3771 9.35007C37.3087 9.35007 37.2986 9.37132 37.1567 9.75393C36.9871 10.2109 36.6401 11.0346 36.6123 11.0452C36.5996 11.0506 36.5591 11.0346 36.5211 11.008C36.4705 10.9735 36.4249 10.9682 36.3059 10.9788C36.2223 10.9894 36.1539 10.9894 36.1539 10.9815C36.1539 10.9762 36.1792 10.9177 36.2122 10.8566C36.2653 10.7477 36.2679 10.7237 36.2653 10.0276C36.2653 9.62906 36.2501 9.23316 36.235 9.13751C36.2096 8.98872 36.1944 8.95152 36.1134 8.87712C35.9969 8.77084 35.7639 8.69379 35.493 8.66988C35.265 8.64862 35.2422 8.62737 35.2422 8.42809C35.2422 8.23413 35.6272 7.81698 36.1311 7.4636C36.4629 7.22978 36.6477 7.13147 37.2834 6.84983C38.1925 6.44862 38.5091 6.25732 39.1168 5.74451C39.6917 5.26094 40.183 4.71891 40.5097 4.20877C40.8237 3.71988 41.1681 2.79258 41.3935 1.84403C41.4973 1.40031 41.5226 1.24089 41.5226 1.00973C41.5226 0.640408 41.4213 0.449104 41.2263 0.449104C41.0415 0.449104 40.9351 0.547413 39.9525 1.6421C39.5473 2.09645 39.3726 2.24258 38.9269 2.50828C38.2938 2.88558 37.5467 3.47543 37.0909 3.95369C36.8047 4.25393 36.6807 4.41335 36.3489 4.90756C36.1286 5.23171 35.8779 5.59041 35.7943 5.69934C35.5512 6.01553 35.1384 6.37688 34.7687 6.59476C34.6319 6.67712 34.3078 6.82591 34.2698 6.82591C34.2192 6.82591 34.2951 6.72229 34.6193 6.35297C35.3967 5.46819 36.0197 4.62326 36.3641 3.99089C36.5262 3.69331 36.6249 3.4648 36.8908 2.7607C37.0175 2.43389 37.1947 2.00877 37.2884 1.81746C37.4606 1.46939 37.9317 0.656349 38.1064 0.409248C38.2457 0.207314 38.2685 0.156834 38.2254 0.114319C38.1824 0.0691528 37.8557 -0.00258636 37.7164 6.86646e-05C37.6582 0.00272751 37.5467 0.0160141 37.4708 0.0292969ZM23.4894 8.76553C23.6413 8.76553 23.6641 8.78413 23.6919 8.93292C23.7173 9.07374 23.7046 9.10031 23.5653 9.18533C23.4868 9.23582 23.4615 9.23848 23.3754 9.21456C23.1931 9.16142 23.074 9.03123 23.0614 8.87181C23.0487 8.73099 23.0512 8.73099 23.2159 8.74959C23.302 8.75756 23.426 8.76553 23.4894 8.76553ZM26.0623 8.94089C26.1458 8.95152 26.2294 8.97012 26.2471 8.9834C26.2978 9.02857 26.2851 9.25176 26.2269 9.31819C26.1408 9.41384 25.8698 9.42978 25.7989 9.33944C25.7533 9.28364 25.6419 8.94886 25.6596 8.92229C25.6698 8.90635 25.7255 8.90104 25.7938 8.90901C25.8572 8.91698 25.9787 8.93026 26.0623 8.94089ZM28.0452 9.02326C28.0578 9.04983 28.0755 9.14017 28.0857 9.22253L28.1009 9.37398L27.9692 9.48026C27.6931 9.69548 27.4703 9.99572 27.3817 10.2667C27.3082 10.4979 27.2804 10.8725 27.3108 11.2392C27.3285 11.4252 27.331 11.5766 27.3184 11.5899C27.2398 11.6723 26.2775 9.80708 26.2775 9.57591C26.2775 9.552 26.3231 9.5148 26.3864 9.48558C26.584 9.39524 26.6802 9.2491 26.6498 9.08702C26.6422 9.04451 26.6422 9.00466 26.6498 8.99403C26.6599 8.98606 26.9714 8.97809 27.3437 8.97809C27.9641 8.97809 28.0249 8.98075 28.0452 9.02326ZM37.5974 16.8428C37.6708 17.0262 37.8329 17.1457 38.1292 17.2281C38.1646 17.2387 38.2431 17.3051 38.3039 17.3769C38.4052 17.4964 38.4128 17.515 38.3875 17.5762C38.2811 17.8179 38.4229 18.1235 38.8484 18.5805C38.9927 18.732 39.0155 18.7665 38.9877 18.7957C38.9674 18.8143 38.7674 18.9233 38.5394 19.0375C38.2533 19.181 38.1191 19.2341 38.1013 19.2155C38.0507 19.1624 37.8481 18.5061 37.7468 18.0783C37.6506 17.6638 37.5214 16.9438 37.5214 16.8242C37.5214 16.7392 37.5594 16.7472 37.5974 16.8428Z" fill="black"/>
<path d="M23.8409 58.21C22.6275 58.21 21.7525 58.0467 21.2159 57.72C20.7025 57.3933 20.2242 56.9033 19.7809 56.25L9.98086 41.375V54.01C9.98086 54.6633 10.2025 55.13 10.6459 55.41C11.1125 55.6667 11.7425 55.795 12.5359 55.795C12.5359 56.6117 12.2675 57.3467 11.7309 58H4.45086C3.93753 57.37 3.68086 56.635 3.68086 55.795C4.47419 55.795 5.06919 55.6667 5.46586 55.41C5.88586 55.13 6.09586 54.6633 6.09586 54.01V37.56C6.09586 36.9067 5.86253 36.4517 5.39586 36.195C4.95253 35.915 4.33419 35.775 3.54086 35.775C3.54086 34.8883 3.79753 34.1533 4.31086 33.57H9.17586C9.85253 33.57 10.5292 33.8383 11.2059 34.375C11.9059 34.8883 12.5475 35.6117 13.1309 36.545L21.0759 49.11V37.56C21.0759 36.9067 20.8542 36.4517 20.4109 36.195C19.9909 35.915 19.3842 35.775 18.5909 35.775C18.5909 35.3783 18.6609 34.9817 18.8009 34.585C18.9409 34.1883 19.1392 33.85 19.3959 33.57H26.8509C27.3875 34.1767 27.6559 34.9117 27.6559 35.775C26.8859 35.775 26.2909 35.915 25.8709 36.195C25.4509 36.4517 25.2409 36.9067 25.2409 37.56V58.21H23.8409ZM27.6529 58C27.1162 57.4167 26.8479 56.67 26.8479 55.76C27.4779 55.76 28.0612 55.5733 28.5979 55.2C29.1579 54.8267 29.5662 54.255 29.8229 53.485L35.5629 36.545C34.6295 36.2417 33.4512 36.09 32.0279 36.09C32.0279 35.0867 32.3079 34.2467 32.8679 33.57H42.4579L48.9679 53.38C49.2245 54.15 49.6329 54.745 50.1929 55.165C50.7529 55.5617 51.3362 55.76 51.9429 55.76C51.9429 56.67 51.6745 57.4167 51.1379 58H41.6529C41.1162 57.4167 40.8479 56.67 40.8479 55.76C41.4545 55.76 41.9329 55.6317 42.2829 55.375C42.6562 55.095 42.8429 54.6633 42.8429 54.08C42.8429 53.87 42.8195 53.625 42.7729 53.345C42.7495 53.065 42.6912 52.7617 42.5979 52.435L42.3879 51.7H34.5479L34.3379 52.435C34.2445 52.7383 34.1629 53.0183 34.0929 53.275C34.0462 53.5317 34.0229 53.765 34.0229 53.975C34.0229 54.605 34.2212 55.06 34.6179 55.34C35.0145 55.62 35.5629 55.76 36.2629 55.76C36.2629 56.67 35.9945 57.4167 35.4579 58H27.6529ZM35.3179 48.97H41.6179L39.1329 40.29C38.9229 39.59 38.6545 38.995 38.3279 38.505L35.3179 48.97ZM71.2544 58.245C69.761 58.245 68.6177 58 67.8244 57.51C67.031 56.9967 66.4477 56.32 66.0744 55.48C65.701 54.64 65.3744 53.7183 65.0944 52.715C64.931 52.0383 64.721 51.3383 64.4644 50.615C64.231 49.8917 63.951 49.25 63.6244 48.69C63.2977 48.13 62.901 47.7683 62.4344 47.605H60.1244V54.01C60.1244 54.6633 60.3577 55.13 60.8244 55.41C61.291 55.6667 61.8627 55.795 62.5394 55.795C62.5394 56.635 62.2827 57.37 61.7694 58H52.9844C52.4477 57.3467 52.1794 56.6117 52.1794 55.795C52.9727 55.795 53.5444 55.6667 53.8944 55.41C54.2677 55.13 54.4544 54.6633 54.4544 54.01V37.56C54.4544 36.9067 54.2677 36.4517 53.8944 36.195C53.521 35.915 52.9377 35.775 52.1444 35.775C52.1444 35.3783 52.2027 34.9817 52.3194 34.585C52.436 34.1883 52.611 33.85 52.8444 33.57C53.8477 33.57 54.781 33.5583 55.6444 33.535C56.5077 33.4883 57.301 33.4533 58.0244 33.43C58.6544 33.3833 59.3427 33.3483 60.0894 33.325C60.8594 33.3017 61.606 33.29 62.3294 33.29C64.756 33.29 66.681 33.57 68.1044 34.13C69.551 34.69 70.5894 35.4717 71.2194 36.475C71.8494 37.4783 72.1644 38.6683 72.1644 40.045C72.1644 43.4517 70.286 45.54 66.5294 46.31C67.556 46.6133 68.5477 47.3367 69.5044 48.48C70.4844 49.6233 71.2194 51 71.7094 52.61C71.966 53.4733 72.2927 54.1267 72.6894 54.57C73.1094 55.0133 73.646 55.2817 74.2994 55.375V57.125C73.996 57.5683 73.5644 57.86 73.0044 58C72.4444 58.1633 71.861 58.245 71.2544 58.245ZM61.6644 45.19C63.0877 45.19 64.1844 44.7467 64.9544 43.86C65.7477 42.9733 66.1444 41.8183 66.1444 40.395C66.1444 38.9483 65.806 37.8517 65.1294 37.105C64.4527 36.335 63.356 35.95 61.8394 35.95C61.606 35.95 61.3027 35.9617 60.9294 35.985C60.5794 36.0083 60.311 36.0433 60.1244 36.09V45.12C60.2877 45.1433 60.5444 45.1667 60.8944 45.19C61.2444 45.19 61.501 45.19 61.6644 45.19ZM94.1206 58.245C92.6273 58.245 91.4839 58 90.6906 57.51C89.8973 56.9967 89.3139 56.32 88.9406 55.48C88.5673 54.64 88.2406 53.7183 87.9606 52.715C87.7973 52.0383 87.5873 51.3383 87.3306 50.615C87.0973 49.8917 86.8173 49.25 86.4906 48.69C86.1639 48.13 85.7673 47.7683 85.3006 47.605H82.9906V54.01C82.9906 54.6633 83.2239 55.13 83.6906 55.41C84.1573 55.6667 84.7289 55.795 85.4056 55.795C85.4056 56.635 85.1489 57.37 84.6356 58H75.8506C75.3139 57.3467 75.0456 56.6117 75.0456 55.795C75.8389 55.795 76.4106 55.6667 76.7606 55.41C77.1339 55.13 77.3206 54.6633 77.3206 54.01V37.56C77.3206 36.9067 77.1339 36.4517 76.7606 36.195C76.3873 35.915 75.8039 35.775 75.0106 35.775C75.0106 35.3783 75.0689 34.9817 75.1856 34.585C75.3023 34.1883 75.4773 33.85 75.7106 33.57C76.7139 33.57 77.6473 33.5583 78.5106 33.535C79.3739 33.4883 80.1673 33.4533 80.8906 33.43C81.5206 33.3833 82.2089 33.3483 82.9556 33.325C83.7256 33.3017 84.4723 33.29 85.1956 33.29C87.6223 33.29 89.5473 33.57 90.9706 34.13C92.4173 34.69 93.4556 35.4717 94.0856 36.475C94.7156 37.4783 95.0306 38.6683 95.0306 40.045C95.0306 43.4517 93.1523 45.54 89.3956 46.31C90.4223 46.6133 91.4139 47.3367 92.3706 48.48C93.3506 49.6233 94.0856 51 94.5756 52.61C94.8323 53.4733 95.1589 54.1267 95.5556 54.57C95.9756 55.0133 96.5123 55.2817 97.1656 55.375V57.125C96.8623 57.5683 96.4306 57.86 95.8706 58C95.3106 58.1633 94.7273 58.245 94.1206 58.245ZM84.5306 45.19C85.9539 45.19 87.0506 44.7467 87.8206 43.86C88.6139 42.9733 89.0106 41.8183 89.0106 40.395C89.0106 38.9483 88.6723 37.8517 87.9956 37.105C87.3189 36.335 86.2223 35.95 84.7056 35.95C84.4723 35.95 84.1689 35.9617 83.7956 35.985C83.4456 36.0083 83.1773 36.0433 82.9906 36.09V45.12C83.1539 45.1433 83.4106 45.1667 83.7606 45.19C84.1106 45.19 84.3673 45.19 84.5306 45.19ZM98.2681 58C97.7314 57.4167 97.4631 56.67 97.4631 55.76C98.0931 55.76 98.6764 55.5733 99.2131 55.2C99.7731 54.8267 100.181 54.255 100.438 53.485L106.178 36.545C105.245 36.2417 104.066 36.09 102.643 36.09C102.643 35.0867 102.923 34.2467 103.483 33.57H113.073L119.583 53.38C119.84 54.15 120.248 54.745 120.808 55.165C121.368 55.5617 121.951 55.76 122.558 55.76C122.558 56.67 122.29 57.4167 121.753 58H112.268C111.731 57.4167 111.463 56.67 111.463 55.76C112.07 55.76 112.548 55.6317 112.898 55.375C113.271 55.095 113.458 54.6633 113.458 54.08C113.458 53.87 113.435 53.625 113.388 53.345C113.365 53.065 113.306 52.7617 113.213 52.435L113.003 51.7H105.163L104.953 52.435C104.86 52.7383 104.778 53.0183 104.708 53.275C104.661 53.5317 104.638 53.765 104.638 53.975C104.638 54.605 104.836 55.06 105.233 55.34C105.63 55.62 106.178 55.76 106.878 55.76C106.878 56.67 106.61 57.4167 106.073 58H98.2681ZM105.933 48.97H112.233L109.748 40.29C109.538 39.59 109.27 38.995 108.943 38.505L105.933 48.97ZM125.391 58C124.877 57.4167 124.621 56.67 124.621 55.76C125.881 55.76 126.849 55.6083 127.526 55.305C128.226 55.0017 128.576 54.5233 128.576 53.87V36.335H127.806C127.199 36.335 126.592 36.5217 125.986 36.895C125.402 37.2683 124.889 37.9567 124.446 38.96C124.026 39.94 123.734 41.375 123.571 43.265C123.291 43.2417 122.941 43.2183 122.521 43.195C122.101 43.1717 121.692 43.1367 121.296 43.09C120.922 43.02 120.631 42.95 120.421 42.88C120.421 42.39 120.444 41.7017 120.491 40.815C120.537 39.9283 120.607 38.9833 120.701 37.98C120.794 36.9767 120.911 36.0433 121.051 35.18C121.214 34.2933 121.401 33.6167 121.611 33.15C122.031 33.15 122.509 33.185 123.046 33.255C123.582 33.325 124.061 33.43 124.481 33.57H138.131C138.574 33.43 139.052 33.325 139.566 33.255C140.079 33.185 140.557 33.15 141.001 33.15C141.211 33.6167 141.386 34.2933 141.526 35.18C141.689 36.0433 141.817 36.9767 141.911 37.98C142.004 38.9833 142.074 39.9283 142.121 40.815C142.167 41.7017 142.191 42.39 142.191 42.88C141.887 42.9967 141.397 43.09 140.721 43.16C140.067 43.23 139.507 43.265 139.041 43.265C138.901 41.375 138.667 39.94 138.341 38.96C138.014 37.9567 137.582 37.2683 137.046 36.895C136.509 36.5217 135.821 36.335 134.981 36.335H134.386V53.87C134.386 55.13 135.622 55.76 138.096 55.76C138.096 56.67 137.827 57.4167 137.291 58H125.391ZM144.177 58C143.663 57.4167 143.407 56.67 143.407 55.76C144.177 55.76 144.713 55.6317 145.017 55.375C145.343 55.1183 145.507 54.6633 145.507 54.01V37.56C145.507 36.9067 145.343 36.4517 145.017 36.195C144.713 35.915 144.177 35.775 143.407 35.775C143.407 34.8883 143.663 34.1533 144.177 33.57H152.682C152.915 33.85 153.102 34.1883 153.242 34.585C153.382 34.9817 153.452 35.3783 153.452 35.775C152.682 35.775 152.133 35.915 151.807 36.195C151.503 36.4517 151.352 36.9067 151.352 37.56V54.01C151.352 54.6633 151.503 55.1183 151.807 55.375C152.133 55.6317 152.682 55.76 153.452 55.76C153.452 56.18 153.382 56.5883 153.242 56.985C153.102 57.3817 152.915 57.72 152.682 58H144.177ZM164.698 58.245L156.543 37.42C156.31 36.8133 155.971 36.3933 155.528 36.16C155.085 35.9033 154.455 35.775 153.638 35.775C153.638 35.355 153.685 34.97 153.778 34.62C153.848 34.27 153.988 33.92 154.198 33.57H164.558C164.721 33.85 164.861 34.1883 164.978 34.585C165.118 34.9583 165.188 35.355 165.188 35.775C163.811 35.775 163.123 36.3 163.123 37.35C163.123 37.4667 163.146 37.595 163.193 37.735C163.24 37.875 163.286 38.0267 163.333 38.19L166.273 47.675L167.323 51.525L168.373 47.745L171.173 38.085C171.22 37.945 171.255 37.8167 171.278 37.7C171.301 37.56 171.313 37.4433 171.313 37.35C171.313 36.8833 171.138 36.51 170.788 36.23C170.438 35.9267 169.925 35.775 169.248 35.775C169.248 35.355 169.283 34.97 169.353 34.62C169.423 34.27 169.575 33.92 169.808 33.57H177.928C178.138 33.8967 178.278 34.2467 178.348 34.62C178.441 34.97 178.488 35.355 178.488 35.775C177.695 35.775 177.053 35.8917 176.563 36.125C176.096 36.3583 175.758 36.79 175.548 37.42L169.598 54.885C169.201 56.075 168.723 56.9383 168.163 57.475C167.626 57.9883 166.833 58.245 165.783 58.245H164.698ZM175.788 58C175.251 57.4167 174.983 56.67 174.983 55.76C175.613 55.76 176.196 55.5733 176.733 55.2C177.293 54.8267 177.701 54.255 177.958 53.485L183.698 36.545C182.764 36.2417 181.586 36.09 180.163 36.09C180.163 35.0867 180.443 34.2467 181.003 33.57H190.593L197.103 53.38C197.359 54.15 197.768 54.745 198.328 55.165C198.888 55.5617 199.471 55.76 200.078 55.76C200.078 56.67 199.809 57.4167 199.273 58H189.788C189.251 57.4167 188.983 56.67 188.983 55.76C189.589 55.76 190.068 55.6317 190.418 55.375C190.791 55.095 190.978 54.6633 190.978 54.08C190.978 53.87 190.954 53.625 190.908 53.345C190.884 53.065 190.826 52.7617 190.733 52.435L190.523 51.7H182.683L182.473 52.435C182.379 52.7383 182.298 53.0183 182.228 53.275C182.181 53.5317 182.158 53.765 182.158 53.975C182.158 54.605 182.356 55.06 182.753 55.34C183.149 55.62 183.698 55.76 184.398 55.76C184.398 56.67 184.129 57.4167 183.593 58H175.788ZM183.453 48.97H189.753L187.268 40.29C187.058 39.59 186.789 38.995 186.463 38.505L183.453 48.97Z" fill="black"/>
</svg>
